<svg width="813" height="109" viewBox="0 0 813 109" fill="none" xmlns="http://www.w3.org/2000/svg">
<path d="M108.682 54.1588C108.682 69.2941 103.394 82.0588 92.8176 92.6353C82.2412 103.212 69.4765 108.5 54.5235 108.5C39.5706 108.5 26.8059 103.212 16.0471 92.6353C5.47059 82.0588 0 69.2941 0 54.1588C0 39.2059 5.28823 26.4412 16.0471 15.8647C26.6235 5.28823 39.5706 0 54.5235 0C69.4765 0 82.2412 5.28823 92.8176 15.8647C103.394 26.4412 108.682 39.2059 108.682 54.1588ZM105.4 54.1588C101.206 44.8588 94.4588 37.2 85.7059 31.1824C76.2235 24.8 65.8294 21.7 54.3412 21.7C42.8529 21.7 32.4588 24.8 22.9765 31.1824C14.2235 37.0177 7.65882 44.6765 3.28235 54.1588C7.47647 63.6412 14.0412 71.3 22.9765 77.1353C32.4588 83.3353 42.8529 86.6176 54.3412 86.6176C65.8294 86.6176 76.2235 83.5177 85.7059 77.1353C94.6412 71.3 101.206 63.8235 105.4 54.1588ZM83.3353 54.1588C83.3353 62.1823 80.6 68.9294 74.9471 74.5824C69.2941 80.2353 62.5471 82.9706 54.5235 82.9706C46.5 82.9706 39.7529 80.2353 34.1 74.5824C28.4471 68.9294 25.7118 62.1823 25.7118 54.1588C25.7118 46.1353 28.4471 39.3882 34.1 33.9177C39.7529 28.2647 46.5 25.5294 54.5235 25.5294C62.5471 25.5294 69.2941 28.2647 74.9471 33.9177C80.4177 39.3882 83.3353 46.3176 83.3353 54.1588Z" fill="white"/>
<path d="M118.347 54.1588C118.347 26.0764 141.506 2.9176 171.594 2.9176C198.947 2.9176 212.988 22.6117 212.988 22.6117L198.947 36.6529C198.947 36.6529 189.1 22.6117 171.594 22.6117C154.088 22.6117 140.047 36.6529 140.047 54.1588C140.047 71.6646 154.088 85.7058 171.594 85.7058C189.829 85.7058 199.676 71.6647 199.676 71.6647L213.718 85.7058C213.718 85.7058 199.676 105.4 171.594 105.4C141.506 105.582 118.347 82.2411 118.347 54.1588Z" fill="white"/>
<path d="M221.559 5.28827H262.953C282.647 5.28827 294.5 17.1412 294.5 31.1824C294.5 46.6824 281.188 51.4235 281.188 51.4235C281.188 51.4235 299.424 56.3471 299.424 75.3118C299.424 90.8118 286.841 103.394 265.688 103.394H221.559V5.28827ZM261.494 43.0353C268.424 43.0353 272.8 38.8412 272.8 33.1882C272.8 27.5353 268.606 23.3412 261.494 23.3412H242.529V43.0353H261.494ZM264.412 84.9765C272.8 84.9765 277.724 80.053 277.724 73.1236C277.724 66.1941 272.8 61.2706 264.412 61.2706H242.712V85.1588H264.412V84.9765Z" fill="white"/>
<path d="M301.976 90.0824L316.018 76.0412C316.018 76.0412 324.406 86.6177 339.176 86.6177C350.3 86.6177 355.224 81.6942 355.224 75.3118C355.224 58.5353 306.171 66.1942 306.171 31.9118C306.171 16.4118 319.482 3.10004 341.912 3.10004C363.612 3.10004 374.918 16.4118 374.918 16.4118L360.876 30.453C360.876 30.453 353.947 22.0648 342.641 22.0648C332.065 22.0648 327.871 26.2589 327.871 31.9118C327.871 48.6883 376.924 41.0295 376.924 75.3118C376.924 91.3589 362.882 105.4 339.724 105.4C314.559 105.582 301.976 90.0824 301.976 90.0824Z" fill="white"/>
<path d="M411.935 5.28827H430.9L478.859 66.0118V5.28827H499.647V103.212H480.682L433.271 42.3059V103.212H411.935V5.28827Z" fill="white"/>
<path d="M513.871 5.28827H586.812V24.8H535.023V43.7647H575.688V62.7294H535.023V83.8824H588.271V103.212H513.871V5.28827Z" fill="white"/>
<path d="M593.194 5.28827H614.894L635.318 71.1177H635.865L656.288 5.28827H675.982L696.224 71.1177H696.953L717.376 5.28827H739.076L706.8 103.212H686.376L666.682 39.3883H665.588L645.712 103.212H625.471L593.194 5.28827Z" fill="white"/>
<path d="M737.435 90.0824L751.476 76.0412C751.476 76.0412 759.865 86.6177 774.635 86.6177C785.759 86.6177 790.682 81.6942 790.682 75.3118C790.682 58.5353 741.629 66.1942 741.629 31.9118C741.629 16.4118 754.941 3.10004 777.371 3.10004C799.071 3.10004 810.376 16.4118 810.376 16.4118L796.335 30.453C796.335 30.453 789.406 22.0648 778.1 22.0648C767.524 22.0648 763.329 26.2589 763.329 31.9118C763.329 48.6883 812.382 41.0295 812.382 75.3118C812.382 91.3589 798.341 105.4 775.182 105.4C750.018 105.582 737.435 90.0824 737.435 90.0824Z" fill="white"/>
</svg>
