<svg width="913" height="124" viewBox="0 0 913 124" fill="none" xmlns="http://www.w3.org/2000/svg">
<g clip-path="url(#clip0_123_15)">
<path d="M72.2957 12.7472C72.2957 2.728 62.7688 -0.297596 54.78 0.0496038V0.942404C59.5435 1.2896 63.2153 3.224 63.2153 6.448C63.2153 8.68 61.6275 11.4576 56.864 11.4576C53.0929 11.4576 46.8409 9.2256 40.9858 7.2912C34.5352 5.0592 28.3824 2.976 23.2716 2.976C13.2484 2.976 5.65664 10.416 5.65664 19.6416C5.65664 27.0816 11.4125 29.6608 13.7446 30.6032L13.8935 30.256C12.4049 29.264 11.4621 28.1728 11.4621 24.9984C11.4621 22.32 13.3973 18.7488 18.5577 18.7488C23.222 18.7488 29.3252 20.832 37.4132 23.1136C44.3599 25.048 51.8525 26.8832 56.0205 27.4288V43.6976L48.1806 50.1456L56.0205 56.8912V79.1616C52.0013 81.4432 47.3371 82.1872 43.3179 82.1872C35.875 82.1872 29.0275 80.104 23.3708 73.8544L44.5088 63.5872V28.4208L18.7066 39.928C21.386 33.0832 26.3976 27.9744 31.9054 24.6512L31.7565 24.2544C16.4241 28.4208 2.48099 42.4576 2.48099 59.8176C2.48099 80.6 19.1035 96.0256 38.3063 96.0256C59.0969 96.0256 71.3033 79.7568 71.1048 62.5456H70.7079C67.6811 69.1424 62.6199 75.392 56.9137 78.6656V56.9408L65.1009 50.344L56.9137 43.7472V27.4784C64.5054 27.4784 72.3453 22.4688 72.3453 12.7968M28.7794 70.0848L22.7754 73.1104C19.1035 68.3488 16.6722 61.6032 16.6722 52.9232C16.6722 49.352 17.0691 44.4912 18.26 41.0688L28.8786 36.3072L28.7297 70.0352L28.7794 70.0848ZM125.389 41.5152L121.369 44.6896L109.113 33.7776L94.9222 44.7392V2.3808L75.6202 15.7232C77.8531 16.4672 80.5326 17.6576 80.5326 22.816V81.3936L73.9332 86.4032L74.5286 86.9984L77.8531 84.7168L89.3648 95.232L104.797 84.9648L104.3 84.2208L100.38 86.8L95.0215 81.4432V46.128L98.6933 43.4496L107.129 50.7904V81.4928C107.129 100.936 102.812 104.954 94.0787 108.128V108.624C108.617 109.219 121.717 104.309 121.717 79.4096V45.9296L126.083 42.3584L125.488 41.6144L125.389 41.5152ZM151.29 95.0832L173.668 77.128L173.073 76.2848L161.363 85.56L147.916 74.9456V68.3488L171.138 51.9808L159.428 33.7776L133.625 47.9632V81.6912L128.614 85.6096L129.209 86.3536L133.973 82.584L151.34 95.1824H151.29V95.0832ZM147.866 66.96V41.416L159.13 59.024L147.866 66.96ZM266.209 7.9856C266.209 6.3984 265.812 5.0592 265.217 3.224H264.869C263.281 7.5392 261.545 9.8208 256.533 9.8208C252.167 9.8208 248.693 7.1424 246.857 5.1584C246.857 5.3072 232.17 22.1216 232.17 22.1216L232.914 22.7168L237.082 17.9552C240.258 20.3856 243.086 23.2128 250.132 23.312V66.1664L220.063 14.0864C217.731 10.168 213.711 4.3152 206.864 4.3152C198.776 4.3152 192.673 11.2592 193.665 23.0144H194.161C194.757 20.088 196.493 16.4176 200.016 16.4176C202.845 16.4176 205.127 19.096 206.467 21.5264V38.2912C197.188 38.2912 191.928 42.6064 191.928 49.8976C191.928 52.9232 194.161 59.52 200.463 60.6608V60.3136C199.62 59.4704 198.776 58.7264 198.776 56.9904C198.776 54.1632 200.86 52.6256 204.631 52.6256C205.227 52.6256 206.12 52.7744 206.467 52.8736V74.5984C195.551 74.7472 187.165 80.6992 187.165 91.016C187.165 101.333 195.6 105.301 204.383 104.805V104.458C198.875 103.862 196.047 101.035 196.047 97.0176C196.047 92.6528 199.223 90.272 203.242 90.272C207.261 90.272 210.337 92.8512 212.918 95.7776L227.605 79.2608L227.01 78.6656L223.238 82.9808C217.582 77.9712 213.96 75.64 207.459 74.648V23.1632L248.941 95.4304H251.174V23.4112C259.113 22.9152 266.209 16.9632 266.209 7.9856ZM280.152 94.984L302.531 77.0288L301.935 76.1856L290.225 85.4608L276.778 74.8464V68.2496L300 51.8816L288.29 33.6784L262.488 47.864V81.592L257.476 85.5104L258.071 86.2544L262.835 82.4848L280.202 95.0832L280.152 94.984ZM276.728 66.8608V41.3168L287.992 58.9248L276.728 66.8608ZM382.021 39.4816L378.597 42.0608L368.822 33.728L357.459 43.9952L362.124 48.36V86.6512L350.513 78.7152V47.6656L354.532 44.8384L342.573 33.728L331.459 43.9952L336.123 48.36V85.3616L335.379 85.8576L324.462 77.9216V47.5168C324.462 40.424 320.89 38.3408 316.374 35.5632C312.603 33.232 310.618 31.0496 310.618 27.4784C310.618 23.56 314.042 21.9728 315.134 21.3776C311.214 21.2288 300.347 25.1472 300.099 35.0672C299.95 40.176 302.431 42.408 305.011 44.8384C307.592 47.2688 310.023 49.6 310.023 53.9152V83.7248L304.763 87.8912L305.359 88.4864L310.37 84.568L323.42 95.1824L335.875 86.5024L349.57 95.1824L376.464 79.3104V44.8384L382.468 40.176L381.971 39.432L382.021 39.4816ZM472.081 10.5152L466.97 15.1776L455.458 5.1584L439.927 17.608V5.9024H438.984V89.8752C437.297 89.6272 433.725 88.6352 429.805 88.04V17.7568C429.805 12.648 426.133 5.5056 416.953 5.5056C407.774 5.5056 402.018 13.2432 402.018 19.9392H402.415C402.911 16.9136 404.995 14.1856 408.022 14.1856C411.049 14.1856 413.877 16.12 413.877 23.0144V43.0528C405.193 43.4 399.934 48.8064 399.934 54.6592C399.934 57.9824 402.018 64.1824 408.617 64.4304V63.9344C406.384 62.992 405.938 61.8512 405.938 60.6112C405.938 57.6848 408.766 56.6928 412.686 56.6928H413.629V88.9824C406.186 91.5616 402.712 96.5712 402.712 102.771C402.712 111.302 409.56 117.899 419.583 117.899C426.679 117.899 431.69 116.659 438.19 115.221C443.45 114.13 449.156 112.89 452.233 112.89C456.153 112.89 457.889 114.626 457.889 117.403C457.889 120.974 456.55 122.76 454.466 123.405V123.901C462.901 122.314 467.813 117.453 467.813 109.864C467.813 102.275 460.37 97.2656 452.034 97.2656C447.717 97.2656 439.927 98.6048 433.576 100.093C426.48 101.68 420.377 102.424 418.144 102.424C414.571 102.424 410.205 100.837 410.205 96.0752C410.205 91.76 413.778 88.3376 422.56 88.3376C427.324 88.3376 431.988 89.0816 437.843 90.4208C444.095 91.76 448.362 93.5952 453.721 93.5952C461.164 93.5952 467.168 90.9168 467.168 80.0048V16.3184L472.676 11.3088L472.081 10.5648V10.5152ZM451.042 44.144C449.702 45.632 448.114 46.8224 445.534 46.8224C442.706 46.8224 441.217 45.3344 439.877 44.144V18.8976L443.549 15.9712L450.992 22.32V44.1936L451.042 44.144ZM451.042 56.0976C449.801 54.8576 448.214 53.7664 445.534 53.7664C442.855 53.7664 441.019 55.1056 439.877 56.0976V45.3344C440.969 46.2768 442.805 47.7648 445.534 47.7648C448.263 47.7648 449.851 46.5248 451.042 45.3344V56.0976ZM451.042 81.3936C451.042 85.56 448.958 90.2224 443.599 90.2224C442.755 90.2224 440.771 90.0736 439.927 89.9744V57.3376C441.168 56.2464 442.755 54.7584 445.584 54.7584C448.164 54.7584 449.603 55.9984 451.091 57.3376V81.4432L451.042 81.3936ZM494.608 94.984L519.566 79.4592V45.4832L503.44 33.6288L478.481 47.9136V81.5424L473.569 85.4608L474.065 86.2048L478.085 82.8816L494.608 94.984ZM492.772 77.376V41.168L505.226 50.4432V86.6512L492.772 77.376ZM567.251 34.472C565.316 35.8112 563.579 36.5552 561.743 36.5552C559.808 36.5552 557.377 35.3152 556.086 33.728C556.086 33.8768 546.808 43.7472 546.808 43.7472L537.529 33.728L522.395 44.2432L522.891 45.0864L526.91 42.408L532.418 48.4096V81.2944L525.819 86.304L526.414 86.8992L529.738 84.6176L542.094 95.1328L557.724 84.7664L557.228 84.0224L553.209 86.4528L546.857 80.6992V44.5904C549.437 47.4176 552.365 49.848 555.888 49.848C562.239 49.848 566.507 42.2592 567.251 34.4224M626.199 83.08L621.535 86.0064L595.732 47.5168L597.072 45.6816C599.901 47.368 602.431 49.6992 607.84 49.6992C613.248 49.6992 620.096 44.0448 620.691 33.6784C619.351 35.5136 616.672 37.696 612.256 37.696C609.08 37.696 605.905 35.6128 603.969 33.6784L586.354 59.5696L609.725 95.1328L626.695 83.8736L626.199 83.0304V83.08ZM594.889 84.0224L590.969 86.6016L585.61 81.2448V2.3808L566.308 15.7232C568.541 16.4672 571.22 17.6576 571.22 22.816V81.3936L564.621 86.4032L565.216 86.9984L568.541 84.7168L580.053 95.232L595.484 84.9648L594.988 84.2208L594.889 84.0224ZM708.468 12.648C708.468 2.6288 698.941 -0.396796 690.952 -0.0495962V0.942404C695.716 1.2896 699.388 3.224 699.388 6.448C699.388 8.68 697.8 11.4576 693.036 11.4576C689.265 11.4576 683.013 9.2256 677.158 7.2912C670.708 5.0592 664.555 2.976 659.444 2.976C649.421 2.976 641.829 10.416 641.829 19.592C641.829 27.032 647.585 29.6112 649.917 30.5536L650.066 30.2064C648.577 29.2144 647.635 28.1232 647.635 24.9488C647.635 22.2704 649.57 18.6992 654.73 18.6992C659.394 18.6992 665.498 20.7824 673.586 23.064C680.532 24.9984 688.025 26.8336 692.193 27.3792V43.648L684.353 50.096L692.193 56.8416V79.112C688.174 81.3936 683.51 82.1376 679.49 82.1376C672.047 82.1376 665.15 80.0544 659.543 73.8048L680.681 63.5376V28.4208L654.879 39.928C657.558 33.0832 662.57 27.9744 668.078 24.6512L667.929 24.2544C652.646 28.4208 638.703 42.4576 638.703 59.8176C638.703 80.6 655.326 96.0256 674.528 96.0256C695.319 96.0256 707.525 79.7568 707.327 62.5456H706.98C703.953 69.1424 698.892 75.392 693.185 78.6656V56.9408L701.373 50.344L693.185 43.7472V27.4784C700.777 27.4784 708.617 22.4688 708.617 12.7968M665.051 70.1344L659.047 73.16C655.375 68.3984 652.944 61.6528 652.944 52.9728C652.944 49.4016 653.291 44.5408 654.532 41.1184L665.15 36.3568L665.001 70.0848L665.051 70.1344ZM724.247 9.0768L713.48 18.104L722.659 28.4704L733.427 19.4432L724.247 9.0768ZM740.622 84.2208L736.702 86.8L731.343 81.4432V45.88L735.858 42.3088L735.263 41.5648L731.492 44.4912L722.56 33.8768L707.873 44.144L708.369 44.9872L712.041 42.5568L716.953 48.6576V81.4432L710.354 86.4528L710.949 87.048L714.274 84.7664L725.785 95.2816L741.217 85.0144L740.721 84.2704L740.622 84.2208ZM823.139 83.7248L819.467 86.1552L813.711 80.6496V45.7808L818.375 42.2096L817.78 41.4656L813.612 44.64L801.356 33.728L787.562 44.4912L775.455 33.728L761.859 44.3424L752.679 33.728L737.992 43.9952L738.488 44.8384L742.16 42.408L747.42 48.4096V81.1952L743.4 85.2128L755.111 95.1328L766.473 84.8656L761.809 80.5008V45.5824L764.836 43.3504L773.271 50.6912V81.2448L769.351 85.2624L781.21 95.1824L792.325 84.9152L787.661 80.5504V45.632L790.589 43.3008L799.123 50.7408V80.7984L795.699 84.3696L807.658 95.2816L823.437 84.5184L822.941 83.7744H823.04L823.139 83.7248ZM865.812 76.2848L854.102 85.56L840.655 74.9456V68.3488L863.877 51.9808L852.166 33.7776L826.364 47.9632V82.336L844.078 95.1824L866.457 77.2272L865.861 76.384L865.812 76.2848ZM840.605 66.96V41.416L851.869 59.024L840.605 66.96ZM910.668 62.1488L900.744 54.56C907.343 48.8064 909.676 41.5152 909.676 36.2576C909.676 35.5136 909.527 34.1744 909.427 32.9344H909.03C908.088 35.6128 905.458 37.944 901.439 37.944C897.419 37.944 895.187 35.712 892.755 33.0336L870.029 45.632V64.0832L878.713 70.928C870.029 78.616 868.342 83.3776 868.342 87.792C868.342 92.2064 870.923 96.0752 875.339 97.8112L875.686 97.216C874.594 96.2736 873.602 95.6288 873.602 93.2976C873.602 91.6112 875.339 88.9328 879.259 88.9328C884.27 88.9328 887.347 92.3552 888.934 94.1904C888.934 94.0416 910.668 80.848 910.668 80.848V62.1488ZM905.557 47.0208C902.133 53.1216 894.591 59.1232 890.125 62.5456L884.618 57.8832V39.928C886.85 44.8384 891.366 48.9552 897.221 48.9552C900.645 48.9552 902.878 48.36 905.507 47.0208M896.08 87.3456C893.499 81.592 887.992 77.4256 881.889 77.4256C880.4 77.4256 875.885 77.2768 871.965 79.7072C874.297 75.7888 881.244 68.7456 890.076 63.4384L896.08 68.448V87.296V87.3456Z" fill="white"/>
</g>
<defs>
<clipPath id="clip0_123_15">
<rect width="913" height="124" fill="white"/>
</clipPath>
</defs>
</svg>
