<svg width="840" height="126" viewBox="0 0 840 126" fill="none" xmlns="http://www.w3.org/2000/svg">
<g clip-path="url(#clip0_121_13)">
<path d="M47.2418 38.5432V82.6269C52.906 79.2544 55.6778 74.4365 57.7266 68.0528L59.1728 68.7754C57.8471 84.6745 46.7597 100.092 29.8877 100.092C13.0156 100.092 0 87.4448 0 67.2096C0 51.7924 9.27964 42.277 22.5363 33.9662C20.8106 33.4818 19.0261 33.2386 17.2336 33.2435C8.55655 33.2435 3.49493 39.1454 3.49493 45.1678H1.80772C1.70749 44.3286 1.66721 43.4833 1.68721 42.6384C1.68721 31.4368 8.31552 18.9102 22.0542 18.9102C30.8518 18.9102 37.6006 26.9802 47.8444 26.9802C53.0265 26.9802 55.9189 25.0531 57.9676 20.5965H59.4138C59.2933 28.4256 57.0035 36.0138 47.2418 38.5432ZM24.344 34.5684C18.1977 40.9521 12.172 47.6972 12.172 61.3077C12.172 68.7755 14.4618 76.2432 20.126 81.0611L23.8619 79.0135V48.5403L20.0055 50.5879L18.8003 48.6607L36.8775 38.5432C32.298 37.5796 28.562 35.7729 24.344 34.5684ZM44.952 39.025C44.0318 39.1277 43.1058 39.1679 42.1802 39.1454C40.5601 39.1702 38.9426 39.0085 37.3596 38.6636V74.1956L21.9337 82.6269C25.3824 85.1552 29.5918 86.43 33.8647 86.2403C37.6887 86.2249 41.4666 85.404 44.952 83.8314V39.025ZM97.9785 50.1061V91.4196C97.9785 102.983 87.7227 110.824 76.2859 113.1L75.5628 111.896C81.227 109.125 84.9629 104.175 84.9629 98.1526V55.0445L79.0577 49.6243L75.9243 52.7559V85.3972L79.5398 88.7697V89.2515L69.7781 99.622L58.5702 89.3719V88.8902L62.9087 84.3132V31.0754L75.6833 17.4649L75.9243 17.5853V49.6243L86.4091 38.5432L96.8939 48.0585L100.148 44.9269L101.727 46.4927L97.9785 50.1061ZM117.996 74.6774V80.0975L128.842 88.6493L137.278 79.8566L138.845 81.4224L121.72 99.7304L106.306 87.4448L102.932 90.8173L101.485 89.2515L105.221 85.3972V55.1649L127.999 38.5432L140.653 58.1761L117.996 74.6774ZM118.237 47.4563L117.996 47.5767V71.7866L128.481 64.078L118.237 47.4563ZM216.927 99.622L200.175 85.1683L187.4 99.622L170.046 84.6745V61.0668H166.672C165.463 60.9956 164.273 61.3947 163.352 62.1805C162.431 62.9664 161.85 64.078 161.731 65.2825H160.526C160.141 63.7867 159.938 62.2499 159.923 60.7055C159.923 57.5738 161.249 49.3834 170.046 49.3834V31.0754C170.046 23.969 165.346 23.6077 165.346 17.4649C165.346 10.5994 171.854 4.21566 183.785 0L184.87 0.963579C180.893 2.89074 177.639 5.29968 177.639 10.4789C177.639 18.4284 185.352 16.3808 185.352 28.9074V33.7253L199.452 18.9102L214.275 33.4844L228.255 18.9102L241.753 32.1594V76.725L216.927 99.622ZM199.331 39.5067L190.895 31.1959L185.352 36.8569V78.1703L195.595 86.963L199.331 82.7473V39.5067ZM226.568 37.9409L219.819 31.1959L214.637 36.3751V78.0499L226.447 88.4084L226.568 88.2879V37.9409ZM280.558 99.622L269.23 89.2515H268.989L258.986 99.622L246.814 88.8902L244.042 91.6604L242.476 90.0946L245.971 86.4812V54.8036L268.868 38.4227L281.402 48.2994L284.776 44.9269L286.584 46.4927L282.246 50.5879V83.2291L287.789 88.2879L291.284 84.6745L293.092 86.3608L280.558 99.622ZM269.23 54.5627L259.227 46.7336L258.986 46.9745V82.1451L266.338 88.6493L269.23 85.879V54.5627ZM318.159 60.3441H329.487V86.1199L310.326 99.622C309.025 98.0749 307.402 96.8303 305.57 95.9752C303.739 95.1201 301.742 94.6752 299.72 94.6716C296.105 94.6716 293.212 96.3579 290.32 99.4895L288.633 98.8873L305.264 75.0387H295.02V52.6355L315.026 38.5432C317.436 40.4703 319.364 41.6748 322.498 41.6748C325.566 41.7764 328.58 40.8431 331.054 39.025L332.259 39.8681L318.159 60.3441ZM316.472 70.9435H310.808L297.43 90.0946L297.551 90.3355C300.186 88.3447 303.407 87.2854 306.71 87.3243C308.555 87.331 310.376 87.7447 312.043 88.5359C313.709 89.327 315.18 90.4762 316.351 91.9013L316.472 91.7929V70.9435ZM324.185 47.3358C321.875 49.2989 318.895 50.2917 315.869 50.1061C314.434 50.06 313.023 49.7272 311.719 49.1273C310.415 48.5274 309.245 47.6725 308.277 46.6131L308.036 46.7336V64.3189H312.615L324.305 47.4563L324.185 47.3358ZM372.391 50.1061V91.4196C372.391 102.983 362.135 110.824 350.698 113.1L349.975 111.896C355.639 109.125 359.375 104.175 359.375 98.1526V55.0445L353.47 49.6243L350.336 52.7559V85.3972L353.952 88.7697V89.2515L344.19 99.622L332.982 89.3719V88.8902L337.321 84.3132V31.0754L350.095 17.4649L350.336 17.5853V49.6243L360.821 38.5432L371.318 48.0585L374.572 44.9269L376.139 46.4927L372.391 50.1061ZM396.012 99.622L386.009 90.456L382.634 93.8285L381.068 92.2627L385.045 88.1675V53.84L380.706 49.8652L377.452 52.9968L375.886 51.431L388.058 38.5432L397.217 46.854L400.471 43.4815L402.158 45.1678L398.06 49.263V83.7109L403.122 88.4084L406.737 84.6745L408.304 86.3608L396.012 99.622ZM392.517 37.4591L382.634 28.4256L391.673 18.7898L401.555 27.8233L392.517 37.4591ZM448.074 99.622L437.589 90.0946V54.924L431.925 49.6243L427.827 53.84V85.2767L431.563 88.7697V89.2515L421.681 99.622L410.473 89.3719V89.0106L414.812 84.4336V54.0809L409.871 49.6243L406.255 53.2377L404.568 51.6719L416.861 38.5432L427.827 48.2994V50.7083L439.276 38.5432L449.761 47.9381L453.256 44.4451L454.823 46.1313L450.605 50.347V84.0723L455.305 88.5288L459.282 84.4336L460.728 85.9994L448.074 99.622ZM499.895 50.2386V91.0582C499.895 97.3215 503.39 97.0806 503.39 101.778C503.39 107.21 495.557 112.269 483.505 121.303C479.528 116.966 476.756 115.16 473.02 115.16C468.393 115.327 463.913 116.834 460.125 119.496L458.92 118.532L475.431 99.1282L464.584 90.5885L461.09 94.0694L459.523 92.5036L463.62 88.2879V54.8036L486.518 38.4227L498.811 48.0585L502.426 44.5655L503.993 46.1313L499.895 50.2386ZM490.616 100.477C487.603 98.538 486.88 96.4904 486.88 91.3112V89.4924L467.477 112.016L467.597 112.137C471.454 109.848 474.346 108.403 480.01 108.403C484.831 108.403 488.326 110.45 491.459 113.221C493.749 111.293 495.436 109.366 495.436 106.355C495.436 103.958 493.629 102.38 490.616 100.465V100.477ZM486.88 54.5627L476.877 46.7336L476.636 46.9745V83.9518L483.746 89.4924L486.88 85.879V54.5627ZM524.842 99.622L514.237 91.2991L510.983 94.5512L509.416 92.9974L513.152 89.1311V47.4563H506.162L505.921 47.2154L510.139 40.9521H513.152V32.8821L525.926 19.2716L526.168 19.5125V40.9521H535.809L536.05 41.193L531.832 47.4563H526.168V83.9518L531.952 88.4084L535.929 84.3132L537.496 85.9994L524.842 99.622ZM577.519 51.3106V84.6745L557.152 99.7304L542.316 88.5288L538.942 91.9013L537.375 90.3355L541.232 86.3608V53.84L562.575 38.5432L576.314 49.263L579.809 45.77L581.375 47.4563L577.519 51.3106ZM564.503 54.924L554.368 46.9745L554.26 47.0949V82.9882L564.503 90.6969V54.924ZM625.243 99.4895L614.758 89.9742V54.8036L609.094 49.5039L604.984 53.7195V85.1563L608.72 88.6493V89.1311L598.838 99.5016L587.63 89.2515V88.8902L591.969 84.3132V53.9604L587.027 49.5039L583.412 53.1173L581.725 51.5515L594.017 38.4227L604.984 48.1789V50.5879L616.433 38.4227L626.918 47.8176L630.413 44.3246L631.98 46.0109L627.761 50.2266V83.9518L632.462 88.4084L636.438 84.3132L637.885 85.879L625.243 99.4895ZM699.227 99.622C697.33 97.0324 694.678 95.0928 691.634 94.0694V119.135L691.393 119.255L684.765 113.112L670.785 126L670.544 125.88V93.4672C665.679 94.69 661.356 97.4898 658.252 101.429L657.288 100.826C658.131 91.54 662.711 84.6745 670.544 82.0247V58.5374H668.013C666.523 58.4933 665.065 58.9766 663.896 59.9021C662.728 60.8277 661.924 62.136 661.626 63.5962H660.18C659.548 61.82 659.262 59.9393 659.336 58.0556C659.336 52.1537 663.313 47.6972 669.821 47.6972H670.544V34.6888L666.206 30.8345L662.831 34.2071L661.144 32.6412L674.521 18.9102L685.85 29.2687V41.0726L689.345 37.3387V23.4872H691.634V34.9297L706.699 18.9102L720.317 31.3163V83.7109L699.227 99.622ZM689.345 39.6272L685.85 43.2406V111.065L689.345 114.317V39.6272ZM705.132 36.8569L698.022 30.3527L691.634 37.0978V80.8202C697.299 81.5429 701.517 83.47 705.011 87.2039L705.132 87.0835V36.8569ZM763.823 51.3106V84.6745L743.456 99.7304L728.632 88.5288L725.258 91.9013L723.691 90.3355L727.548 86.3608V53.84L748.879 38.5432L762.617 49.263L766.112 45.77L767.679 47.4563L763.823 51.3106ZM750.807 54.924L740.684 46.9745L740.563 47.0949V82.9882L750.807 90.6969V54.924ZM793.71 60.3441H805.039V86.1199L785.877 99.622C784.576 98.0749 782.954 96.8303 781.122 95.9752C779.29 95.1201 777.293 94.6752 775.272 94.6716C771.656 94.6716 768.764 96.3579 765.871 99.4895L764.184 98.8873L780.815 75.0387H770.571V52.6355L790.577 38.5432C792.987 40.4703 794.915 41.6748 798.049 41.6748C801.121 41.7763 804.139 40.8431 806.617 39.025L807.823 39.8681L793.71 60.3441ZM792.023 70.9435H786.359L772.982 90.0946L773.102 90.3355C775.737 88.3447 778.959 87.2854 782.261 87.3243C784.106 87.331 785.927 87.7447 787.594 88.5359C789.26 89.327 790.732 90.4762 791.903 91.9013L792.023 91.7929V70.9435ZM799.748 47.3358C797.433 49.2963 794.45 50.2886 791.421 50.1061C789.986 50.06 788.575 49.7272 787.271 49.1273C785.967 48.5274 784.796 47.6725 783.828 46.6131L783.587 46.7336V64.3189H788.167L799.857 47.4563L799.748 47.3358ZM827.346 99.622L816.741 91.2991L813.475 94.5512L811.908 92.9974L815.644 89.1311V47.4563H808.654L808.413 47.2154L812.631 40.9521H815.644V32.8821L828.431 19.2716L828.672 19.5125V40.9521H838.313L838.554 41.193L834.336 47.4563H828.672V83.9518L834.456 88.4084L838.433 84.3132L840 85.9994L827.346 99.622Z" fill="white"/>
</g>
<defs>
<clipPath id="clip0_121_13">
<rect width="840" height="126" fill="white"/>
</clipPath>
</defs>
</svg>
