<svg width="613" height="221" viewBox="0 0 613 221" fill="none" xmlns="http://www.w3.org/2000/svg">
<path d="M110.104 77.6029C114.363 77.5914 118.583 78.424 122.518 80.0525C126.453 81.681 130.026 84.073 133.03 87.0901C133.207 87.2673 133.396 87.4264 133.583 87.5895L141.238 79.8065L180.277 40.1152L188 32.2627C167.569 11.7142 139.808 0.10983 110.816 0H110.084C88.3696 0.0044316 67.1416 6.42265 49.0693 18.4475C30.997 30.4724 16.8873 47.567 8.51457 67.5816C0.14184 87.5961 -2.12007 109.637 2.0133 130.932C6.14667 152.228 16.4908 171.827 31.7447 187.265C47.1788 202.937 66.98 213.602 88.5686 217.871C109.574 222.06 131.346 220.04 151.219 212.058C153.894 210.961 156.025 208.851 157.15 206.19C158.274 203.529 158.3 200.532 157.222 197.852C156.143 195.172 154.048 193.026 151.393 191.883C148.738 190.739 145.738 190.691 143.047 191.747C130.984 196.598 117.995 198.725 105.013 197.974C92.0304 197.223 79.3747 193.613 67.952 187.404C50.7308 178.042 37.1224 163.215 29.2765 145.266C21.4305 127.317 19.7942 107.267 24.626 88.2854C29.4581 69.3033 40.4833 52.4705 55.9598 40.4462C71.4363 28.4218 90.482 21.8913 110.088 21.8863H110.675C127.403 21.9509 143.763 26.7993 157.82 35.8581L153.692 40.3092C136.543 29.6039 116.046 25.5863 96.1186 29.0243C76.1913 32.4622 58.2306 43.1145 45.6685 58.9457C33.1065 74.777 26.8239 94.6771 28.0213 114.843C29.2187 135.01 37.8121 154.028 52.1594 168.265C67.3406 183.33 89.0046 192.022 111.596 192.113H111.641C114.532 192.097 117.3 190.94 119.342 188.894C121.383 186.847 122.531 184.078 122.537 181.189C122.543 178.3 121.405 175.526 119.372 173.472C117.338 171.418 114.575 170.25 111.683 170.223C94.7999 170.158 78.7331 163.779 67.6018 152.735C59.1392 144.337 53.3593 133.622 50.9931 121.942C48.627 110.263 49.7808 98.1457 54.3088 87.1218C58.8367 76.0979 66.5353 66.6629 76.4311 60.0101C86.3268 53.3573 97.9751 49.7854 109.903 49.7462H110.109C119.983 49.7239 129.709 52.1364 138.425 56.7695L134.191 61.3333C127.493 58.0275 120.185 56.1375 112.723 55.7813C105.261 55.4252 97.8052 56.6106 90.8225 59.2635C83.8399 61.9163 77.48 65.9796 72.1406 71.1993C66.8012 76.419 62.597 82.6829 59.7909 89.5994C56.9847 96.5159 55.6369 103.936 55.8317 111.397C56.0265 118.857 57.7597 126.197 60.923 132.958C64.0864 139.719 68.6117 145.756 74.2163 150.69C79.8208 155.625 86.384 159.351 93.4957 161.637C103.002 164.694 113.169 165.073 122.877 162.733C132.586 160.394 141.461 155.425 148.526 148.374C149.544 147.358 150.351 146.152 150.902 144.824C151.452 143.496 151.736 142.073 151.736 140.635C151.736 139.198 151.452 137.775 150.902 136.447C150.351 135.119 149.544 133.912 148.526 132.896C147.509 131.88 146.302 131.073 144.972 130.523C143.643 129.973 142.218 129.69 140.78 129.69C139.341 129.69 137.916 129.973 136.587 130.523C135.258 131.073 134.05 131.879 133.032 132.895C129.262 136.661 124.62 139.44 119.518 140.986C114.416 142.532 109.011 142.798 103.782 141.759C95.8895 140.189 88.8635 135.743 84.0703 129.285C79.277 122.827 77.0591 114.82 77.8478 106.819C78.6364 98.8183 82.3753 91.3965 88.3374 85.9969C94.2995 80.5972 102.059 77.6055 110.106 77.6035L110.104 77.6029Z" fill="#FF5C28"/>
<g clip-path="url(#clip0_112_11)">
<mask id="mask0_112_11" style="mask-type:luminance" maskUnits="userSpaceOnUse" x="206" y="19" width="407" height="202">
<path d="M206 19H613V220.141H206V19Z" fill="white"/>
</mask>
<g mask="url(#mask0_112_11)">
<path d="M206 48.7906C206 34.1237 216.81 23.1125 231.508 23.1125C242.978 23.1125 252.087 30.0507 255.192 40.3571H246.663C244.055 34.5386 238.464 30.7994 231.466 30.7994C221.363 30.7994 214.074 38.4447 214.074 48.8323C214.074 59.22 221.322 66.7818 231.466 66.7818C238.464 66.7818 244.055 63.0426 246.663 57.2263H255.234C252.127 67.5305 243.019 74.4688 231.549 74.4688C216.807 74.4688 206 63.4576 206 48.7906ZM296.601 34.6221V73.6388H288.61V67.1946C285.835 71.6825 281.695 74.5061 275.689 74.5061C267.076 74.5061 261.901 68.7754 261.901 59.2595V34.6221H269.892V57.5996C269.892 63.6244 272.418 66.8235 278.216 66.8235C284.842 66.8235 288.61 62.3356 288.61 54.8572V34.6221H296.601ZM305.463 19H313.538V73.5971H305.463V19ZM351.054 71.643C348.94 72.9318 344.428 74.4688 339.956 74.4688C331.964 74.4688 325.752 69.4407 325.752 58.6381V42.1027H318.546V34.6221H325.752V25.7297L333.743 23.9446V34.5803H349.686V42.1027H333.702V58.1814C333.702 63.8747 336.312 66.9904 341.321 66.9904C343.807 66.9904 346.54 66.1582 349.603 65.0801L351.052 71.6451L351.054 71.643ZM390.763 34.6221V73.6388H382.771V67.1946C379.997 71.6825 375.857 74.5061 369.853 74.5061C361.24 74.5061 356.063 68.7754 356.063 59.2595V34.6221H364.054V57.5996C364.054 63.6244 366.581 66.8235 372.378 66.8235C379.003 66.8235 382.771 62.3356 382.771 54.8572V34.6221H390.763ZM422.896 33.959V42.1005C422.099 42.0078 421.296 41.9667 420.493 41.9775C413.207 41.9775 407.616 46.09 407.616 55.7311V73.5971H399.625V34.6243H407.616V42.353C409.935 36.9077 414.408 33.7504 420.535 33.7504C421.528 33.7504 422.316 33.8338 422.896 33.959ZM465.587 34.6221V73.6388H457.596V67.1133C454.78 71.6012 450.102 74.5105 444.014 74.5105C433.62 74.5105 426.043 66.0748 426.043 54.1502C426.043 42.2278 433.745 33.7921 443.931 33.7921C450.06 33.7921 454.738 36.8243 457.554 41.3122V34.6638H465.587V34.6221ZM457.679 54.1107C457.679 46.6718 452.502 41.3957 445.754 41.3957C438.962 41.3957 434.159 46.6301 434.159 54.1085C434.159 61.6308 439.045 66.8235 445.754 66.8235C452.502 66.7818 457.679 61.6308 457.679 54.1107ZM474.574 19H482.648V73.5971H474.574V19ZM218.092 96.0323V108.872H249.354V116.518H218.092V130.352H251.133V137.998H210.103V88.3453H251.138V95.9905H218.092V96.0323ZM317.511 112.985V138.039H309.522V114.689C309.522 108.87 307.203 105.84 301.82 105.84C295.527 105.84 292.297 110.741 292.297 117.807L292.38 137.998H284.262V114.647C284.262 108.829 281.943 105.799 276.56 105.799C270.267 105.799 267.078 110.699 267.078 117.765V137.956H259.085V98.9437H267.076V105.177C269.768 100.689 273.577 98.072 279.168 98.072C285.089 98.072 289.271 100.979 291.177 106.216C293.785 101.188 298.175 98.0698 304.343 98.0698C312.542 98.1533 317.511 103.678 317.511 112.985ZM364.139 120.714H332.542C333.163 127.86 338.216 131.85 344.717 131.85C349.395 131.85 353.288 129.854 355.111 126.031H363.393C360.369 134.757 352.916 138.872 344.675 138.872C332.875 138.872 324.468 130.352 324.468 118.595C324.468 106.837 332.791 98.1533 344.551 98.1533C356.973 98.1533 364.925 107.876 364.139 120.714ZM332.958 114.19H355.566C354.365 108.872 350.349 105.133 344.468 105.133C338.424 105.089 334.282 108.914 332.958 114.19ZM394.364 98.3596V106.506C393.568 106.411 392.766 106.369 391.964 106.378C384.677 106.378 379.084 110.493 379.084 120.132V137.998H371.093V98.981H379.087V106.71C381.406 101.269 385.876 98.1115 392.006 98.1115C392.797 98.1267 393.587 98.2097 394.364 98.3596ZM437.099 98.9832V137.499C437.099 149.134 429.811 156.571 418.299 156.571C409.023 156.571 400.618 151.751 398.92 142.029H407.202C408.526 147.057 412.874 149.424 418.093 149.424C425.213 149.424 429.106 145.395 429.106 137.789V131.143C426.209 135.464 421.528 138.454 415.524 138.454C405.13 138.454 397.553 130.021 397.553 118.303C397.553 106.587 405.255 98.1511 415.524 98.1511C421.528 98.1511 426.25 101.185 429.106 105.673V99.0249H437.099V98.981V98.9832ZM429.148 118.305C429.148 111.075 423.973 105.838 417.222 105.838C410.432 105.838 405.629 111.075 405.629 118.303C405.629 125.614 410.515 130.77 417.222 130.77C424.014 130.77 429.148 125.619 429.148 118.305ZM484.097 120.714H452.502C453.123 127.86 458.176 131.85 464.677 131.85C469.355 131.85 473.248 129.854 475.071 126.031H483.351C480.329 134.757 472.876 138.872 464.635 138.872C452.835 138.872 444.428 130.352 444.428 118.595C444.428 106.837 452.751 98.1533 464.511 98.1533C476.933 98.1533 484.843 107.876 484.097 120.714ZM452.916 114.19H475.526C474.325 108.872 470.307 105.133 464.427 105.133C458.34 105.089 454.242 108.914 452.916 114.19ZM526.042 113.4V137.998H518.051V115.02C518.051 108.998 515.443 105.799 509.563 105.799C502.69 105.799 499.044 110.284 499.044 117.765V137.956H491.053V98.9437H499.044V105.384C501.819 100.854 505.961 98.072 512.046 98.072C520.825 98.1533 526.042 103.886 526.042 113.4ZM532.834 118.511C532.834 106.877 541.447 98.1511 553.042 98.1511C562.234 98.1511 570.35 103.761 572.129 113.191H563.849C562.359 108.291 558.051 105.59 553.042 105.59C545.836 105.59 540.867 110.991 540.867 118.511C540.867 126.115 545.961 131.433 552.959 131.433C558.051 131.433 562.359 128.607 563.849 123.787H572.129C570.309 133.426 562.11 138.913 552.959 138.913C541.488 138.869 532.834 130.146 532.834 118.511ZM613 98.9832L587.285 155.741H578.714L588.983 133.053L573.661 99.0249H582.234L593.247 124.411L604.471 99.0249H613V98.9832ZM231.632 183.911H218.919V202.442H210.928V152.748H236.435C247.16 152.748 253.247 159.146 253.247 168.495C253.247 176.641 248.652 181.957 240.825 183.454L255.608 202.401H245.794L231.632 183.911ZM218.919 176.806H235.606C242.192 176.806 245.212 173.398 245.212 168.579C245.212 163.759 242.107 160.433 235.606 160.433H218.919V176.806ZM297.925 185.114H266.332C266.954 192.261 272.004 196.251 278.505 196.251C283.186 196.251 287.076 194.257 288.899 190.432H297.181C294.157 199.16 286.704 203.272 278.464 203.272C266.663 203.272 258.258 194.753 258.258 182.995C258.258 171.238 266.58 162.554 278.339 162.554C290.763 162.554 298.711 172.276 297.925 185.114ZM266.744 178.593H289.354C288.153 173.273 284.137 169.534 278.258 169.534C272.212 169.492 268.109 173.315 266.744 178.593ZM302.481 189.852H310.599C311.798 194.174 314.986 196.167 321.693 196.167C326.87 196.167 330.017 194.588 330.017 191.679C330.017 188.397 326.332 187.94 319.831 186.361C308.94 183.661 304.345 181.458 304.345 174.935C304.345 167.084 310.969 162.512 320.741 162.512C330.719 162.512 336.312 167.248 337.719 174.353H329.645C328.527 171.154 325.546 169.617 320.619 169.617C315.441 169.617 312.42 171.405 312.42 174.105C312.42 176.597 314.82 177.221 321.61 178.841C332.128 181.333 338.218 183.162 338.218 190.766C338.218 199.118 330.721 203.231 321.529 203.231C311.301 203.274 303.971 198.286 302.481 189.852ZM385.008 182.912C385.008 194.839 377.43 203.272 367.036 203.272C360.949 203.272 356.312 200.282 353.454 195.877V220.141H345.463V163.386H353.454V170.035C356.271 165.547 360.949 162.514 367.078 162.514C377.305 162.556 385.008 170.987 385.008 182.912ZM376.933 182.912C376.933 175.475 372.128 170.199 365.336 170.199C358.548 170.199 353.411 175.434 353.411 182.912C353.411 190.434 358.588 195.627 365.336 195.627C372.047 195.585 376.933 190.432 376.933 182.912ZM430.887 182.912C430.887 194.63 422.069 203.272 410.763 203.272C399.542 203.272 390.638 194.547 390.638 182.912C390.638 171.154 399.666 162.554 410.763 162.554C421.9 162.554 430.887 171.154 430.887 182.912ZM398.631 182.912C398.631 190.434 403.931 195.627 410.721 195.627C417.513 195.627 422.813 190.434 422.813 182.914C422.813 175.392 417.43 170.199 410.721 170.199C404.014 170.199 398.631 175.392 398.631 182.912ZM472.957 177.803V202.401H464.966V179.423C464.966 173.398 462.357 170.199 456.478 170.199C449.605 170.199 445.959 174.687 445.959 182.165V202.359H437.968V163.342H445.959V169.784C448.734 165.255 452.876 162.473 458.961 162.473C467.74 162.554 472.957 168.287 472.957 177.803ZM479.169 189.852H487.285C488.486 194.174 491.675 196.167 498.381 196.167C503.559 196.167 506.705 194.588 506.705 191.679C506.705 188.397 503.02 187.94 496.519 186.361C485.629 183.661 481.031 181.458 481.031 174.935C481.031 167.084 487.657 162.512 497.43 162.512C507.41 162.512 512.998 167.248 514.408 174.353H506.333C505.215 171.154 502.233 169.617 497.305 169.617C492.13 169.617 489.108 171.405 489.108 174.105C489.108 176.597 491.508 177.221 498.3 178.841C508.817 181.333 514.904 183.162 514.904 190.766C514.904 199.118 507.41 203.231 498.217 203.231C487.99 203.274 480.659 198.286 479.169 189.852ZM559.707 185.114H528.114C528.736 192.261 533.786 196.251 540.287 196.251C544.968 196.251 548.858 194.257 550.681 190.432H558.963C555.939 199.16 548.486 203.272 540.245 203.272C528.445 203.272 520.04 194.753 520.04 182.995C520.04 171.238 528.362 162.554 540.123 162.554C552.587 162.554 560.495 172.276 559.707 185.114ZM528.569 178.593H551.178C549.976 173.273 545.961 169.534 540.081 169.534C533.994 169.492 529.893 173.315 528.569 178.593Z" fill="#FF5C28"/>
</g>
</g>
<defs>
<clipPath id="clip0_112_11">
<rect width="407" height="202" fill="white" transform="translate(206 19)"/>
</clipPath>
</defs>
</svg>
