<svg width="822" height="90" viewBox="0 0 822 90" fill="none" xmlns="http://www.w3.org/2000/svg">
<g clip-path="url(#clip0_115_17)">
<path d="M63.7509 87.7283L23.367 59.2822C13.084 52.0261 2.92388 59.4237 0.757878 67.0573C-2.41298 78.3368 4.69913 87.7283 15.8753 87.7283H63.7509Z" fill="#FCCC12"/>
<path d="M127.301 87.7287C138.477 87.7287 145.589 78.3372 142.418 67.0578C140.263 59.4123 130.092 52.0147 119.809 59.2826L79.425 87.7287H127.301Z" fill="#05AC3F"/>
<path d="M102.246 21.5271L81.5242 71.5406L75.6066 28.0752C74.8475 22.1641 84.3597 18.5302 84.3597 18.5302C83.4892 16.4891 80.4857 16.5245 80.4857 16.5245H74.0547H74.0436C73.0162 5.83507 82.2051 -1.95192 92.1197 0.431366C101.878 2.74387 105.406 13.9406 102.246 21.5271Z" fill="#6E55DC"/>
<path d="M69.0554 17.2323C70.5513 6.18896 61.1839 -1.98738 51.0574 0.443105C41.2992 2.74381 37.7709 13.9405 40.9306 21.5387L61.653 71.5524L69.0554 17.2323Z" fill="#EF1541"/>
<path d="M60.0003 79.7527L40.1154 31.851C35.4596 20.7486 23.1334 19.3682 16.3116 25.881C11.5218 30.4706 7.79273 42.9652 18.5223 50.5399L60.0003 79.7527Z" fill="#FF7112"/>
<path d="M124.655 50.5399C135.385 42.977 131.656 30.4706 126.866 25.881C120.056 19.3682 107.729 20.7486 103.062 31.851L83.1777 79.7527L124.655 50.5399Z" fill="#069DE0"/>
</g>
<g clip-path="url(#clip1_115_17)">
<path fill-rule="evenodd" clip-rule="evenodd" d="M426.641 60.0423L426.185 59.4761L425.585 58.7328C417.626 65.9418 412.569 70.0122 401.086 70.0122H400.597C384.801 70.0122 375.031 56.9982 375.031 44.9403C375.031 31.1126 386.546 19.8686 400.697 19.8686C412.091 19.9748 418.126 26.4758 421.028 29.5906L421.483 30.0743L421.806 29.7322L421.861 29.6732L422.128 29.39L422.628 28.859L434.789 15.9515C433.299 14.3705 421.939 0 400.841 0C376.52 0 356.334 19.5973 356.223 44.8106C356.223 69.2808 375.609 89.8572 400.619 89.975C419.427 89.975 428.953 81.8223 437.779 73.7877L426.641 60.0423Z" fill="white"/>
<path fill-rule="evenodd" clip-rule="evenodd" d="M348.908 60.8449C348.908 84.0997 331.367 87.7574 320.396 87.7574H273.587V2.28915H320.351C334.691 2.28915 346.151 10.9374 346.151 27.1249C346.151 35.1361 340.827 39.5605 336.792 41.7432C343.439 45.2827 348.908 50.5096 348.908 60.8449ZM290.683 18.3115V34.4754C290.683 34.4754 315.26 34.4754 318.284 34.4754C322.841 34.4754 327.844 32.4579 327.844 26.4406C327.844 20.4234 323.942 18.2997 317.639 18.2997C314.071 18.3115 290.683 18.3115 290.683 18.3115ZM330.711 60.8449C330.711 52.6451 324.276 50.5215 318.006 50.5215C312.37 50.5215 290.683 50.5215 290.683 50.5215V70.9327C290.683 70.9327 313.549 70.9327 318.651 70.9327C323.753 70.9327 330.711 69.0447 330.711 60.8449Z" fill="white"/>
<path fill-rule="evenodd" clip-rule="evenodd" d="M183.084 2.27716H201.97L240.853 57.553V2.27716H258.56V87.7455H239.674L200.791 32.3515V87.7455H183.084V2.27716Z" fill="white"/>
<path fill-rule="evenodd" clip-rule="evenodd" d="M626.22 69.7476V87.7283H557.77V2.26019H625.233V19.4152H574.933V34.4582H618.007V51.5778H574.933V69.6886L626.22 69.7476Z" fill="white"/>
<path fill-rule="evenodd" clip-rule="evenodd" d="M467.331 2.26019H486.217L525.099 57.5362V2.26019H542.807V87.7283H523.921L485.027 32.3345V87.7283H467.331V2.26019Z" fill="white"/>
<path fill-rule="evenodd" clip-rule="evenodd" d="M727.752 2.26019L712.948 57.9727L697.706 2.26019H679.388L664.159 57.9727L649.351 2.26019H632.614L654.701 87.7283H672.72L688.547 33.9037L704.387 87.7283H722.406L744.493 2.26019H727.752Z" fill="white"/>
<path fill-rule="evenodd" clip-rule="evenodd" d="M805.46 39.5437C791.922 33.4439 767.832 38.0807 768.013 26.4002C768.078 21.8696 774.28 17.9879 784.242 17.9053C795.432 17.8109 809.642 24.1349 809.642 24.1349L818.666 8.92665C818.666 8.92665 800.315 0.00698853 784.561 0.00698853C760.521 0.00698853 749.191 11.2509 749.191 25.2793C749.191 39.6853 756.797 45.3837 760.91 47.5077C774.28 54.4099 789.255 52.522 797.337 56.8047C806.172 61.4888 802.67 72.6856 784.573 71.1164C771.269 69.9603 763.4 67.1404 753.815 61.135L743.956 75.8123C762.585 88.0237 780.551 89.9587 784.573 89.982C798.636 90.0646 821.468 86.1005 821.111 61.5477C820.943 51.5307 816.364 44.4637 805.46 39.5437Z" fill="white"/>
</g>
<defs>
<clipPath id="clip0_115_17">
<rect width="144" height="90" fill="white"/>
</clipPath>
<clipPath id="clip1_115_17">
<rect width="639" height="90" fill="white" transform="translate(183)"/>
</clipPath>
</defs>
</svg>
