<svg width="578" height="189" viewBox="0 0 578 189" fill="none" xmlns="http://www.w3.org/2000/svg">
<path d="M17.6939 13.9387H157.299V45.8325H154.762L155.057 25.3969H99.9114V169.273H115.836V173.998H61.3388V169.273H76.0837V25.3969H20.348V45.8325H17.6939V13.9387ZM163.963 13.9387H218.814V18.3684H203.185V169.332H218.755V174.057H163.904V169.332H179.829V18.3094H163.904V13.9387H163.963ZM267.178 13.5844H277.676L328.988 137.025L379.947 13.5844H390.15L418.755 169.273H433.146V173.998H376.526V169.273H391.094L373.4 69.7528L328.104 174.116H317.487L272.663 69.8119L253.789 169.391H267.531L267.237 174.116H225.538L225.833 169.391H238.572L267.178 13.5844ZM437.924 13.9387H558.655L558.95 45.5372H556.767L555.765 26.0465L476.732 25.1606V88.3575H543.969L545.561 73.5919H548.51C547.802 87.0581 547.802 100.17 548.51 113.518H545.561L543.969 98.28H476.732V163.603H558.714L558.95 141.868H561.191V174.057H437.924V169.568L453.848 169.332V18.6637L437.924 18.3684V13.9978V13.9387Z" fill="#E90606"/>
</svg>
