<svg width="1000" height="126" viewBox="0 0 1000 126" fill="none" xmlns="http://www.w3.org/2000/svg">
<path fill-rule="evenodd" clip-rule="evenodd" d="M302.569 66.0952C327.321 66.0952 343.459 77.8526 343.459 95.7999C343.459 114.364 327.685 126 302.569 126C277.574 126 261.678 114.364 261.678 96.0478C261.678 77.7295 277.574 66.0952 302.569 66.0952ZM979.615 45.9197L981.192 47.1575V68.8171H999.761V73.7697H981.192V102.36C981.192 105.95 980.949 110.033 981.799 112.633C982.53 114.984 984.346 116.47 987.385 116.47C995.406 116.47 995.863 109.59 995.876 102.744V101.122H1000V102.978C1000 109.787 999.637 112.88 998.18 115.727C994.782 122.534 987.141 126 975.367 126C966.509 126 960.444 124.143 956.684 119.813C954.256 117.089 952.923 113.251 952.56 108.796C952.321 106.384 952.201 104.441 952.197 98.9633V73.7697H942.244V69.6831L979.615 45.9197ZM134.075 66.3414C157.614 66.3414 170.84 77.3572 171.203 97.1626H123.52V100.009C123.52 105.577 123.763 109.415 124.491 111.767C126.068 117.337 131.65 120.677 140.02 120.677C150.213 120.677 160.162 115.479 167.685 106.444L170.475 109.539C162.59 120.306 150.092 126 134.682 126C110.537 126 94.3987 114.118 94.3987 96.2953C94.3987 77.8526 109.687 66.3414 134.075 66.3414ZM81.4171 0L81.4179 112.394C81.4521 118.351 82.7419 119.193 90.638 119.193H93.6709V123.774H53.6299V118.452C48.2923 123.152 41.1335 125.753 31.1834 125.753C15.6527 125.753 0 114.364 0 96.0478C0 77.6064 15.41 66.3414 31.1834 66.3414C39.1921 66.3414 47.0786 68.8171 52.2957 72.6537L52.2953 10.6556C52.2598 5.29954 50.9679 4.57923 43.0739 4.57923H37.7359V0H81.4171ZM538.564 66.7133C545.603 66.7133 551.791 67.8267 559.068 70.0549C561.496 70.7961 562.103 70.9205 563.073 70.9205C564.774 70.9205 565.38 70.178 565.744 68.5696H569.748V86.888H565.744V85.5271C565.744 81.1951 565.137 79.5854 563.073 77.7295C560.038 75.0063 554.218 73.0256 548.996 73.0256C544.265 73.0256 541.718 74.7584 541.718 77.7295C541.718 80.5757 543.419 82.061 550.577 84.9086L557.855 87.7548C569.628 92.4574 573.752 96.9134 573.752 105.082C573.752 117.707 562.103 125.505 542.932 125.505C533.833 125.505 526.188 124.02 516.483 120.677C515.389 120.306 514.902 120.059 514.175 120.059C512.598 120.059 512.111 121.173 511.991 123.774H507.868V102.608H511.991V103.103C511.991 107.557 512.718 110.157 514.538 112.262C517.936 116.222 524.731 119.316 531.162 119.316C536.017 119.316 538.564 117.584 538.564 114.737C538.564 112.139 536.744 110.405 531.889 108.176L527.645 106.196C514.175 100.132 508.957 94.6869 508.957 86.2695C508.957 74.139 520.244 66.7133 538.564 66.7133ZM804.167 66.3414C815.936 66.3414 824.427 69.3121 829.038 75.2538C830.615 77.2341 831.709 79.461 832.316 81.6892C833.043 84.2879 833.162 86.3939 833.162 93.5722V112.139C833.162 117.461 834.137 119.193 839.594 119.193H842.021V123.774H805.013V118.575C798.705 123.278 790.697 125.382 782.568 125.382C770.192 125.382 759.88 119.44 759.88 107.188C759.88 93.5722 772.983 88.4964 792.034 88.4964C796.402 88.4964 799.556 88.6208 804.047 88.9927V84.9086C804.047 81.0707 803.923 79.461 803.316 77.8526C802.103 74.6327 798.342 72.9025 792.637 72.9025C786.816 72.9025 780.748 74.6327 777.714 77.1084C775.53 78.8429 774.679 81.1951 774.679 85.6502V87.0124H770.675V68.694H774.316C774.44 70.7961 774.923 71.4159 776.38 71.4159C777.35 71.4159 780.265 70.4268 781.235 70.178C789.487 67.8268 797.248 66.3414 804.167 66.3414ZM615.491 0V94.1902L628.474 84.5367C630.047 83.2989 632.598 81.4413 633.812 80.3265C635.876 78.4719 636.603 77.3572 636.603 75.9962C636.603 74.8819 635.876 74.139 635.026 73.7697C634.081 73.406 633.479 73.2786 629.53 73.2722L625.077 73.2718V68.694H667.543V73.2718C653.709 73.6454 644.85 75.9962 638.543 80.7001L665.115 114.737C667.06 117.212 668.393 118.452 669.607 118.821C670.94 119.193 672.034 119.316 673.367 119.316C674.338 119.44 675.184 119.316 675.184 119.316V123.897H635.876L615.491 96.789V112.139C615.491 118.24 616.786 119.287 624.5 119.315L626.41 119.316V123.897H574.115V119.316H577.15C585.047 119.316 586.333 118.475 586.368 112.517V10.8914C586.368 5.40015 585.192 4.60141 577.487 4.5797L571.808 4.57923V0H615.491ZM444.406 0V94.1902L457.389 84.5367C458.97 83.2989 461.517 81.4413 462.731 80.3265C464.791 78.4719 465.521 77.3572 465.521 75.9962C465.521 74.8819 464.791 74.139 463.944 73.7697C462.996 73.406 462.397 73.2786 458.444 73.2722L453.991 73.2718V68.694H496.462V73.2718C482.628 73.6454 473.769 75.9962 467.462 80.7001L494.034 114.737C495.974 117.212 497.312 118.452 498.526 118.821C499.859 119.193 500.949 119.316 502.282 119.316C503.256 119.44 504.107 119.316 504.107 119.316V123.897H464.791L444.406 96.789V112.139C444.406 118.24 445.705 119.287 453.415 119.315L455.329 119.316V123.897H403.032V119.316H406.067C414.074 119.316 415.288 118.452 415.288 112.262V10.8914C415.288 5.40015 414.109 4.60141 406.406 4.5797L400.727 4.57923V0H444.406ZM740.222 66.3414C751.021 66.3414 757.453 73.3962 757.453 83.9182C757.453 93.9427 751.265 100.627 741.923 100.627C732.94 100.627 726.632 94.6869 726.632 86.3939C726.632 84.4123 726.876 82.6808 727.846 80.8219C728.329 79.8328 728.209 79.7085 728.209 79.461C728.209 79.0904 727.727 78.8429 727.483 78.8429C726.513 78.8429 725.299 79.9572 723.962 82.061C722.628 84.1648 721.415 87.1355 720.808 89.6124C720.201 92.3343 719.838 96.2953 719.838 101.494V112.757C719.838 118.246 721.137 119.167 728.833 119.192L732.701 119.193V123.774H679.556V119.193H681.859C689.867 119.193 691.081 118.452 691.081 112.88V79.7085C691.081 74.139 689.867 73.3962 681.859 73.3962H678.222V68.8171H718.868V83.1758C722.991 72.6537 730.513 66.3414 740.222 66.3414ZM386.41 0V112.757C386.41 118.37 387.708 119.171 395.414 119.192L398.787 119.193V123.774H345.035V119.193H348.068C356.077 119.193 357.291 118.452 357.291 112.88V10.8914C357.291 5.40015 356.112 4.60141 348.407 4.5797L342.73 4.57923V0H386.41ZM909.244 67.0843C917.252 67.0843 923.56 69.56 927.564 74.0147C929.748 76.4903 930.962 79.5854 931.444 83.0514C931.679 85.3352 931.803 86.4525 931.808 90.9392L931.812 112.509C931.812 118.368 932.991 119.171 940.697 119.192L942.974 119.193V123.774H896.137V119.688H896.868C899.291 119.688 900.748 119.316 901.598 118.452C902.427 117.604 902.675 115.577 902.688 110.524V89.2389C902.688 82.5577 902.568 80.7001 901.962 79.3379C901.111 77.2341 899.051 76.2441 896.017 76.2441C892.863 76.2441 889.829 77.6064 888.009 79.8328C886.188 82.1841 885.825 83.9182 885.825 90.9721V110.157C885.825 112.633 885.944 114.984 886.064 116.222C886.432 118.698 887.765 119.688 891.65 119.688H892.863V123.774H846.026V119.193H848.329C856.338 119.193 857.551 118.452 857.551 112.509V80.082C857.551 74.139 856.338 73.3962 848.329 73.3962H844.692V68.8171H884.855V76.7391C891.406 70.3024 899.658 67.0843 909.244 67.0843ZM225.885 0V4.57923H223.58C218.726 4.57923 217.878 4.70233 216.179 4.95127C213.267 5.44503 211.688 7.17796 211.688 9.77669C211.688 12.0048 212.659 14.728 215.45 21.1646L243.357 85.0317L269.324 25.2487C271.144 21.0415 274.177 14.2328 274.177 10.5208C274.177 5.9989 271.339 4.61466 260.76 4.57991L259.374 4.57923V0H297.231V4.57923H296.018C291.648 4.57923 290.436 4.70233 288.858 5.07437C286.31 5.81707 285.097 7.42553 282.67 12.995L233.409 123.774H226.976L176.987 12.995C175.774 10.3963 174.682 8.16823 173.711 7.05486C172.133 5.19747 170.071 4.57923 164.247 4.57923H160.122V0H225.885ZM302.569 70.7961C297.836 70.7961 294.318 72.9025 292.982 76.3685C292.133 78.5963 292.012 80.9476 292.012 89.1145V103.418C292.016 110.944 292.139 113.362 292.892 115.483L292.982 115.727C294.318 119.193 297.836 121.297 302.569 121.297C307.301 121.297 310.819 119.193 312.155 115.727C312.972 113.581 313.114 111.319 313.123 103.846V88.2464C313.115 81.0587 312.983 78.6937 312.244 76.6122L312.155 76.3685C310.819 72.9025 307.301 70.7961 302.569 70.7961ZM40.7688 73.2718C31.0339 73.2718 30.8246 81.331 30.8201 89.795V102.299C30.8246 110.763 31.0339 118.821 40.7688 118.821C43.9239 118.821 46.9568 117.584 49.0201 115.727C51.6897 113.376 52.5385 110.157 52.5385 102.731V89.3633C52.5385 81.9367 51.6897 78.7198 49.0201 76.3685C46.9568 74.5109 43.9239 73.2718 40.7688 73.2718ZM800.944 93.4478H800.406C792.88 93.4478 790.09 96.4184 790.09 104.215V106.815C790.09 114.364 791.791 117.212 796.521 117.212C798.949 117.212 801.132 116.222 802.466 114.614C803.436 113.376 803.803 112.015 803.923 109.415C804.047 107.312 804.047 105.331 804.047 103.97V93.5722C802.145 93.4636 801.987 93.4495 800.944 93.4478ZM133.712 71.0453C129.708 71.0453 126.553 72.5306 125.097 75.0063C123.763 77.2341 123.52 79.3379 123.52 87.1355V92.2112H143.175L143.175 86.464C143.169 80.48 143.035 78.4185 142.204 76.121C141.113 72.9025 138.08 71.0453 133.712 71.0453Z" fill="white"/>
</svg>
